<svg xmlns="http://www.w3.org/2000/svg" width="1440" height="960" viewBox="0 0 1440 960">
  <defs>
    <linearGradient id="dawn" x1="0" y1="0" x2="0" y2="1">
      <stop offset="0" stop-color="#f6b45f"/>
      <stop offset="0.45" stop-color="#f7ddb0"/>
      <stop offset="1" stop-color="#496f37"/>
    </linearGradient>
    <linearGradient id="awning" x1="0" y1="0" x2="1" y2="0">
      <stop offset="0" stop-color="#b9472f"/>
      <stop offset="0.5" stop-color="#f8e8bd"/>
      <stop offset="1" stop-color="#6a913c"/>
    </linearGradient>
    <filter id="drop" x="-20%" y="-20%" width="140%" height="140%">
      <feDropShadow dx="0" dy="16" stdDeviation="18" flood-color="#29190d" flood-opacity="0.24"/>
    </filter>
    <pattern id="tile" width="48" height="48" patternUnits="userSpaceOnUse">
      <path d="M0 0 H48 V48 H0Z" fill="none" stroke="#2f1d0f" stroke-opacity="0.08"/>
      <path d="M0 48 L48 0" stroke="#2f1d0f" stroke-opacity="0.05"/>
    </pattern>
  </defs>

  <rect width="1440" height="960" fill="url(#dawn)"/>
  <rect y="620" width="1440" height="340" fill="#d8b56b"/>
  <rect y="620" width="1440" height="340" fill="url(#tile)" opacity="0.7"/>
  <path d="M0 610 C180 560 360 620 540 570 C760 510 1040 614 1440 540 V670 H0Z" fill="#5f8f43"/>
  <path d="M86 584 L150 472 L214 584Z" fill="#365e2d"/>
  <path d="M1150 580 L1230 440 L1315 580Z" fill="#315729"/>
  <circle cx="1260" cy="116" r="72" fill="#ffd36b"/>

  <g transform="translate(58 42)">
    <rect width="1324" height="876" rx="42" fill="#2f1d0f" fill-opacity="0.18" filter="url(#drop)"/>
    <rect x="22" y="22" width="1280" height="832" rx="34" fill="#fff2ca"/>

    <g transform="translate(54 50)">
      <rect width="1216" height="98" rx="30" fill="#3a2515"/>
      <path d="M0 0 H1216 V34 C1120 66 1040 12 930 42 C795 80 700 12 560 44 C396 82 300 18 148 45 C84 56 38 47 0 36Z" fill="url(#awning)" opacity="0.9"/>
      <text x="32" y="66" font-size="38" font-weight="900" fill="#fff5d2">丰收交易镇</text>
      <g transform="translate(648 52)" font-size="18" font-weight="900">
        <rect width="128" height="36" rx="14" fill="#f7cc57"/><text x="22" y="24" fill="#2f1d0f">玩家端</text>
        <rect x="146" width="128" height="36" rx="14" fill="#ffffff" fill-opacity="0.16"/><text x="168" y="24" fill="#fff5d2">管理台</text>
        <rect x="292" width="180" height="36" rx="14" fill="#6f943e"/><text x="316" y="24" fill="#fff5d2">金币 10,000</text>
      </g>
    </g>

    <g transform="translate(54 184)">
      <rect width="382" height="316" rx="34" fill="#7d4a26" filter="url(#drop)"/>
      <rect x="22" y="22" width="338" height="58" rx="18" fill="#f6cf69"/>
      <text x="44" y="60" font-size="28" font-weight="900" fill="#321c0d">农田摊位</text>
      <g transform="translate(28 104)">
        <rect width="70" height="70" rx="18" fill="#9b5b2f"/><text x="35" y="45" text-anchor="middle" font-size="24">🌾</text>
        <rect x="84" width="70" height="70" rx="18" fill="#294c27"/><text x="119" y="45" text-anchor="middle" font-size="20" fill="#fff5d2">收</text>
        <rect x="168" width="70" height="70" rx="18" fill="#9b5b2f"/><text x="203" y="45" text-anchor="middle" font-size="24">🌱</text>
        <rect x="252" width="70" height="70" rx="18" fill="#d4ba7e" opacity="0.55"/><text x="287" y="45" text-anchor="middle" font-size="18" fill="#5d3b1e">锁</text>
        <rect y="84" width="70" height="70" rx="18" fill="#9b5b2f"/>
        <rect x="84" y="84" width="70" height="70" rx="18" fill="#9b5b2f"/>
        <rect x="168" y="84" width="70" height="70" rx="18" fill="#d4ba7e" opacity="0.55"/>
        <rect x="252" y="84" width="70" height="70" rx="18" fill="#d4ba7e" opacity="0.55"/>
      </g>
    </g>

    <g transform="translate(468 184)">
      <rect width="382" height="316" rx="34" fill="#416b36" filter="url(#drop)"/>
      <rect x="22" y="22" width="338" height="58" rx="18" fill="#dbe98c"/>
      <text x="44" y="60" font-size="28" font-weight="900" fill="#263713">牧场摊位</text>
      <g transform="translate(36 112)">
        <circle cx="52" cy="52" r="42" fill="#fff7df"/><text x="52" y="64" text-anchor="middle" font-size="34">🐔</text>
        <circle cx="162" cy="52" r="42" fill="#fff7df"/><text x="162" y="64" text-anchor="middle" font-size="34">🐄</text>
        <circle cx="272" cy="52" r="42" fill="#e0c486" opacity="0.58"/><text x="272" y="62" text-anchor="middle" font-size="20" font-weight="900" fill="#5d3b1e">锁</text>
        <rect y="128" width="310" height="54" rx="18" fill="#fff7df" fill-opacity="0.18"/>
        <text x="20" y="163" font-size="22" font-weight="900" fill="#fff7df">鸡蛋批次 20</text>
      </g>
    </g>

    <g transform="translate(882 184)">
      <rect width="388" height="316" rx="34" fill="#fff7df" filter="url(#drop)"/>
      <text x="30" y="54" font-size="30" font-weight="900" fill="#332011">行情牌</text>
      <g transform="translate(30 82)">
        <rect width="328" height="54" rx="18" fill="#3a2515"/><text x="22" y="36" font-size="24" font-weight="900" fill="#fff7df">WHEAT</text><text x="250" y="36" font-size="24" font-weight="900" fill="#f6cf69">25</text>
        <rect y="70" width="328" height="54" rx="18" fill="#6f943e"/><text x="22" y="106" font-size="24" font-weight="900" fill="#fff7df">EGG</text><text x="250" y="106" font-size="24" font-weight="900" fill="#fff7df">18</text>
        <rect y="140" width="328" height="86" rx="24" fill="#eeb666"/>
        <text x="22" y="178" font-size="18" font-weight="900" fill="#332011">24h 成交</text>
        <text x="22" y="214" font-size="36" font-weight="900" fill="#332011">8,420</text>
      </g>
    </g>

    <g transform="translate(54 536)">
      <rect width="796" height="300" rx="34" fill="#3a2515" filter="url(#drop)"/>
      <text x="32" y="54" font-size="30" font-weight="900" fill="#fff7df">交易长桌</text>
      <g transform="translate(32 86)">
        <rect width="214" height="160" rx="28" fill="#fff7df"/><text x="26" y="45" font-size="18" font-weight="900" fill="#8a4b20">商店</text><text x="26" y="94" font-size="34" font-weight="900" fill="#332011">种子</text><text x="26" y="132" font-size="28" font-weight="900" fill="#6f943e">80</text>
        <rect x="236" width="214" height="160" rx="28" fill="#f6cf69"/><text x="262" y="45" font-size="18" font-weight="900" fill="#8a4b20">交易站</text><text x="262" y="94" font-size="34" font-weight="900" fill="#332011">买 / 卖</text><text x="262" y="132" font-size="28" font-weight="900" fill="#332011">3%</text>
        <rect x="472" width="214" height="160" rx="28" fill="#b9472f"/><text x="498" y="45" font-size="18" font-weight="900" fill="#ffe1bd">私下</text><text x="498" y="94" font-size="34" font-weight="900" fill="#fff7df">报价</text><text x="498" y="132" font-size="28" font-weight="900" fill="#fff7df">5%</text>
      </g>
    </g>

    <g transform="translate(882 536)">
      <rect width="388" height="300" rx="34" fill="#fff7df" filter="url(#drop)"/>
      <text x="30" y="54" font-size="30" font-weight="900" fill="#332011">报价单</text>
      <g transform="translate(30 88)">
        <rect width="328" height="58" rx="20" fill="#dbe98c"/><text x="20" y="37" font-size="22" font-weight="900" fill="#263713">买方待确认</text><text x="270" y="37" font-size="22" font-weight="900" fill="#263713">2</text>
        <rect y="76" width="328" height="58" rx="20" fill="#f6cf69"/><text x="20" y="113" font-size="22" font-weight="900" fill="#332011">卖方可取消</text><text x="270" y="113" font-size="22" font-weight="900" fill="#332011">1</text>
        <rect y="152" width="328" height="58" rx="20" fill="#3a2515"/><text x="20" y="189" font-size="22" font-weight="900" fill="#fff7df">大宗令牌</text><text x="270" y="189" font-size="22" font-weight="900" fill="#fff7df">2</text>
      </g>
    </g>
  </g>
</svg>
