<svg xmlns="http://www.w3.org/2000/svg" width="1440" height="960" viewBox="0 0 1440 960">
  <defs>
    <linearGradient id="bg" x1="0" y1="0" x2="1" y2="1">
      <stop offset="0" stop-color="#eef4e8"/>
      <stop offset="0.45" stop-color="#f7ecd7"/>
      <stop offset="1" stop-color="#d8e8d1"/>
    </linearGradient>
    <linearGradient id="phone" x1="0" y1="0" x2="0" y2="1">
      <stop offset="0" stop-color="#f8f0de"/>
      <stop offset="1" stop-color="#dbeacb"/>
    </linearGradient>
    <linearGradient id="field" x1="0" y1="0" x2="1" y2="1">
      <stop offset="0" stop-color="#d3a65d"/>
      <stop offset="1" stop-color="#8b5a32"/>
    </linearGradient>
    <linearGradient id="pasture" x1="0" y1="0" x2="1" y2="1">
      <stop offset="0" stop-color="#b8dc83"/>
      <stop offset="1" stop-color="#58944c"/>
    </linearGradient>
    <linearGradient id="coin" x1="0" y1="0" x2="1" y2="1">
      <stop offset="0" stop-color="#ffe6a3"/>
      <stop offset="1" stop-color="#d58b23"/>
    </linearGradient>
    <linearGradient id="glass" x1="0" y1="0" x2="1" y2="1">
      <stop offset="0" stop-color="#ffffff" stop-opacity="0.78"/>
      <stop offset="0.55" stop-color="#ffffff" stop-opacity="0.42"/>
      <stop offset="1" stop-color="#eef9e6" stop-opacity="0.30"/>
    </linearGradient>
    <filter id="soft" x="-30%" y="-30%" width="160%" height="160%">
      <feDropShadow dx="0" dy="24" stdDeviation="28" flood-color="#526044" flood-opacity="0.22"/>
    </filter>
    <filter id="float" x="-30%" y="-30%" width="160%" height="160%">
      <feDropShadow dx="0" dy="18" stdDeviation="18" flood-color="#29351f" flood-opacity="0.18"/>
    </filter>
    <filter id="inner" x="-20%" y="-20%" width="140%" height="140%">
      <feDropShadow dx="0" dy="-1" stdDeviation="1.4" flood-color="#ffffff" flood-opacity="0.95"/>
      <feDropShadow dx="0" dy="10" stdDeviation="10" flood-color="#7b6d53" flood-opacity="0.16"/>
    </filter>
    <pattern id="furrow" width="16" height="16" patternUnits="userSpaceOnUse" patternTransform="rotate(35)">
      <rect width="5" height="16" fill="#ffffff" opacity="0.12"/>
    </pattern>
    <pattern id="meadow" width="18" height="18" patternUnits="userSpaceOnUse">
      <path d="M3 15 C5 10 7 10 9 15 M10 15 C12 8 14 9 15 15" fill="none" stroke="#ffffff" stroke-opacity="0.2" stroke-width="1.6"/>
    </pattern>
    <style>
      text { font-family: "Microsoft YaHei", "Noto Sans SC", sans-serif; }
      .title { font-size: 32px; font-weight: 900; fill: #26321f; letter-spacing: .06em; }
      .note { font-size: 15px; fill: #6d765f; }
      .label { font-size: 13px; fill: #79806f; font-weight: 700; }
      .value { font-size: 24px; fill: #182113; font-weight: 900; }
      .small { font-size: 12px; fill: #7b856f; font-weight: 700; }
      .nav { font-size: 11px; fill: #607057; font-weight: 900; }
      .card-title { font-size: 16px; fill: #1d2818; font-weight: 900; }
      .dark-title { font-size: 16px; fill: #fff7df; font-weight: 900; }
      .dark-small { font-size: 12px; fill: #e8dfc8; font-weight: 700; }
    </style>
  </defs>

  <rect width="1440" height="960" fill="url(#bg)"/>
  <circle cx="128" cy="128" r="90" fill="#ffffff" opacity="0.34"/>
  <circle cx="1296" cy="156" r="120" fill="#cfe6b3" opacity="0.46"/>
  <circle cx="1200" cy="812" r="170" fill="#efd39c" opacity="0.36"/>
  <path d="M0 736 C190 672 258 766 438 706 C650 636 778 688 936 612 C1126 520 1250 602 1440 536 L1440 960 L0 960 Z" fill="#6f9b5f" opacity="0.13"/>

  <text x="86" y="76" class="title">紧凑玻璃拟态方案</text>
  <text x="86" y="108" class="note">主界面缩小为手机游戏 HUD，玻璃拟态只用于个人信息、物品详情、交易确认等悬浮层。</text>

  <g transform="translate(122 146)">
    <rect width="362" height="724" rx="48" fill="#10190f" opacity="0.13" filter="url(#soft)"/>
    <rect x="8" y="0" width="346" height="724" rx="44" fill="url(#phone)" filter="url(#soft)"/>
    <rect x="20" y="16" width="322" height="692" rx="34" fill="#f9f2df" opacity="0.68"/>

    <g transform="translate(36 38)">
      <circle cx="24" cy="24" r="24" fill="#dbe6c9"/>
      <path d="M12 28 C18 12 32 12 37 28 C30 24 20 24 12 28 Z" fill="#5c8f4b"/>
      <text x="62" y="19" class="label">青谷牧人</text>
      <text x="62" y="43" class="value">10,000</text>
      <circle cx="244" cy="24" r="20" fill="#ffffff" opacity="0.78" filter="url(#inner)"/>
      <text x="236" y="30" font-size="17" fill="#5a6b4c">铃</text>
      <circle cx="290" cy="24" r="20" fill="#ffffff" opacity="0.78" filter="url(#inner)"/>
      <text x="282" y="30" font-size="17" fill="#5a6b4c">设</text>
    </g>

    <g transform="translate(34 118)">
      <rect width="294" height="90" rx="28" fill="url(#coin)" filter="url(#inner)"/>
      <text x="24" y="34" font-size="13" fill="#5a3c13" font-weight="900">今日经营</text>
      <text x="24" y="65" font-size="30" fill="#2e1c09" font-weight="900">3 可收获</text>
      <rect x="202" y="21" width="66" height="48" rx="20" fill="#ffffff" opacity="0.46"/>
      <text x="220" y="52" font-size="18" fill="#4a391d" font-weight="900">8/16</text>
    </g>

    <g transform="translate(34 238)">
      <text x="0" y="0" class="card-title">农田</text>
      <text x="248" y="0" class="small">最多 16</text>
      <g transform="translate(0 18)">
        <rect width="64" height="52" rx="14" fill="url(#field)"/>
        <rect width="64" height="52" rx="14" fill="url(#furrow)"/>
        <text x="24" y="34" font-size="20" fill="#fff8df" font-weight="900">麦</text>
        <rect x="76" width="64" height="52" rx="14" fill="url(#field)"/>
        <rect x="76" width="64" height="52" rx="14" fill="url(#furrow)"/>
        <text x="99" y="34" font-size="20" fill="#fff8df" font-weight="900">玉</text>
        <rect x="152" width="64" height="52" rx="14" fill="#fff8e6" stroke="#d4b981" stroke-dasharray="5 5"/>
        <text x="177" y="34" font-size="20" fill="#a7803e" font-weight="900">+</text>
        <rect x="228" width="64" height="52" rx="14" fill="#fff8e6" stroke="#d4b981" stroke-dasharray="5 5"/>
        <text x="253" y="34" font-size="20" fill="#a7803e" font-weight="900">+</text>
      </g>
      <g transform="translate(0 82)">
        <rect width="64" height="52" rx="14" fill="#d2cfba"/>
        <text x="20" y="34" font-size="18" fill="#706a57" font-weight="900">锁</text>
        <rect x="76" width="64" height="52" rx="14" fill="#d2cfba"/>
        <text x="96" y="34" font-size="18" fill="#706a57" font-weight="900">锁</text>
        <rect x="152" width="64" height="52" rx="14" fill="#d2cfba"/>
        <text x="172" y="34" font-size="18" fill="#706a57" font-weight="900">锁</text>
        <rect x="228" width="64" height="52" rx="14" fill="#d2cfba"/>
        <text x="248" y="34" font-size="18" fill="#706a57" font-weight="900">锁</text>
      </g>
    </g>

    <g transform="translate(34 398)">
      <text x="0" y="0" class="card-title">牧场</text>
      <text x="248" y="0" class="small">最多 16</text>
      <g transform="translate(0 18)">
        <rect width="64" height="52" rx="14" fill="url(#pasture)"/>
        <rect width="64" height="52" rx="14" fill="url(#meadow)"/>
        <text x="24" y="34" font-size="20" fill="#fff8df" font-weight="900">鸡</text>
        <rect x="76" width="64" height="52" rx="14" fill="url(#pasture)"/>
        <rect x="76" width="64" height="52" rx="14" fill="url(#meadow)"/>
        <text x="99" y="34" font-size="20" fill="#fff8df" font-weight="900">牛</text>
        <rect x="152" width="64" height="52" rx="14" fill="#f2f7e5" stroke="#98bf79" stroke-dasharray="5 5"/>
        <text x="177" y="34" font-size="20" fill="#61964b" font-weight="900">+</text>
        <rect x="228" width="64" height="52" rx="14" fill="#d2cfba"/>
        <text x="248" y="34" font-size="18" fill="#706a57" font-weight="900">锁</text>
      </g>
    </g>

    <g transform="translate(34 520)">
      <rect width="294" height="72" rx="24" fill="#fffdf1" filter="url(#inner)"/>
      <text x="20" y="27" class="label">下一栏位</text>
      <text x="20" y="52" class="value" font-size="20">2,000</text>
      <rect x="194" y="18" width="78" height="36" rx="18" fill="#24351e"/>
      <text x="211" y="41" font-size="13" fill="#fff8df" font-weight="900">扩建</text>
    </g>

    <g transform="translate(34 626)">
      <rect width="294" height="58" rx="29" fill="#ffffff" filter="url(#inner)"/>
      <text x="21" y="36" class="nav">农场</text>
      <text x="89" y="36" class="nav" opacity="0.58">商店</text>
      <circle cx="147" cy="29" r="32" fill="#24351e" filter="url(#float)"/>
      <text x="137" y="39" font-size="28" fill="#fff8df">+</text>
      <text x="198" y="36" class="nav" opacity="0.58">交易</text>
      <text x="252" y="36" class="nav" opacity="0.58">私下</text>
    </g>
  </g>

  <g transform="translate(540 146)">
    <rect width="362" height="724" rx="48" fill="#10190f" opacity="0.13" filter="url(#soft)"/>
    <rect x="8" y="0" width="346" height="724" rx="44" fill="url(#phone)" filter="url(#soft)"/>
    <rect x="20" y="16" width="322" height="692" rx="34" fill="#f9f2df" opacity="0.68"/>

    <g transform="translate(36 40)">
      <text x="0" y="0" class="label">物品详情悬浮层</text>
      <text x="0" y="36" class="value">小麦种子</text>
      <rect x="210" y="-18" width="82" height="38" rx="19" fill="#e8f6d6"/>
      <text x="228" y="7" font-size="13" fill="#4d7c39" font-weight="900">成长 30m</text>
    </g>

    <g transform="translate(34 116)">
      <rect width="294" height="210" rx="32" fill="#e8d5a9" filter="url(#inner)"/>
      <path d="M30 152 C80 108 96 74 142 92 C198 114 204 56 260 42 L260 210 L30 210 Z" fill="#86b662" opacity="0.52"/>
      <path d="M0 160 C74 142 88 182 134 150 C184 116 216 158 294 112 L294 210 L0 210 Z" fill="#5f9a53" opacity="0.32"/>
      <rect x="28" y="36" width="78" height="64" rx="18" fill="url(#field)"/>
      <rect x="28" y="36" width="78" height="64" rx="18" fill="url(#furrow)"/>
      <text x="54" y="76" font-size="24" fill="#fff8df" font-weight="900">麦</text>
    </g>

    <g transform="translate(54 276)">
      <rect width="254" height="180" rx="30" fill="url(#glass)" stroke="#ffffff" stroke-opacity="0.72" filter="url(#float)"/>
      <text x="24" y="38" class="card-title">小麦种子</text>
      <text x="24" y="66" class="small">用于农田生产，收获后进入库存。</text>
      <line x1="24" y1="84" x2="230" y2="84" stroke="#ffffff" stroke-opacity="0.68"/>
      <text x="24" y="116" class="label">商店价格</text>
      <text x="154" y="116" font-size="16" fill="#1d2818" font-weight="900">80</text>
      <text x="24" y="146" class="label">预计产出</text>
      <text x="154" y="146" font-size="16" fill="#1d2818" font-weight="900">12 份</text>
      <rect x="150" y="28" width="76" height="38" rx="19" fill="#24351e"/>
      <text x="170" y="52" font-size="13" fill="#fff8df" font-weight="900">购买</text>
    </g>

    <g transform="translate(34 488)">
      <text x="0" y="0" class="card-title">商店</text>
      <rect y="20" width="294" height="64" rx="22" fill="#fffdf1" filter="url(#inner)"/>
      <text x="20" y="47" class="label">玉米种子</text>
      <text x="20" y="70" class="small">60m · 产出 10</text>
      <text x="240" y="58" font-size="16" fill="#1d2818" font-weight="900">120</text>
      <rect y="96" width="294" height="64" rx="22" fill="#fffdf1" filter="url(#inner)"/>
      <text x="20" y="123" class="label">幼鸡</text>
      <text x="20" y="146" class="small">2h · 产蛋</text>
      <text x="232" y="134" font-size="16" fill="#1d2818" font-weight="900">320</text>
    </g>

    <g transform="translate(34 626)">
      <rect width="294" height="58" rx="29" fill="#ffffff" filter="url(#inner)"/>
      <text x="21" y="36" class="nav" opacity="0.58">农场</text>
      <text x="89" y="36" class="nav">商店</text>
      <circle cx="147" cy="29" r="32" fill="#24351e" filter="url(#float)"/>
      <text x="137" y="39" font-size="28" fill="#fff8df">+</text>
      <text x="198" y="36" class="nav" opacity="0.58">交易</text>
      <text x="252" y="36" class="nav" opacity="0.58">私下</text>
    </g>
  </g>

  <g transform="translate(958 146)">
    <rect width="362" height="724" rx="48" fill="#10190f" opacity="0.13" filter="url(#soft)"/>
    <rect x="8" y="0" width="346" height="724" rx="44" fill="url(#phone)" filter="url(#soft)"/>
    <rect x="20" y="16" width="322" height="692" rx="34" fill="#f9f2df" opacity="0.68"/>

    <g transform="translate(36 40)">
      <text x="0" y="0" class="label">交易确认悬浮层</text>
      <text x="0" y="36" class="value">小麦 24.5</text>
      <rect x="210" y="-18" width="82" height="38" rx="19" fill="#e8f6d6"/>
      <text x="232" y="7" font-size="13" fill="#4d7c39" font-weight="900">+3.2%</text>
    </g>

    <g transform="translate(34 114)">
      <rect width="294" height="164" rx="30" fill="#fffdf1" filter="url(#inner)"/>
      <path d="M20 116 C54 96 75 128 104 86 C138 36 163 74 194 50 C230 22 254 50 274 36" fill="none" stroke="#416b38" stroke-width="5" stroke-linecap="round"/>
      <path d="M20 128 C54 108 75 140 104 98 C138 48 163 86 194 62 C230 34 254 62 274 48" fill="none" stroke="#416b38" stroke-width="18" stroke-opacity="0.08" stroke-linecap="round"/>
      <text x="22" y="144" class="small">最近成交量驱动价格浮动</text>
    </g>

    <g transform="translate(34 304)">
      <rect width="294" height="70" rx="23" fill="#fffdf1" filter="url(#inner)"/>
      <text x="20" y="28" class="label">买入</text>
      <text x="20" y="54" class="value" font-size="21">500</text>
      <text x="218" y="43" font-size="15" fill="#4d7c39" font-weight="900">税 3%</text>
      <rect y="84" width="294" height="70" rx="23" fill="#fffdf1" filter="url(#inner)"/>
      <text x="20" y="112" class="label">私下报价</text>
      <text x="20" y="138" class="value" font-size="21">118,000</text>
      <text x="212" y="127" font-size="15" fill="#9b672a" font-weight="900">税 5%</text>
    </g>

    <g transform="translate(48 404)">
      <rect width="266" height="198" rx="32" fill="url(#glass)" stroke="#ffffff" stroke-opacity="0.76" filter="url(#float)"/>
      <text x="24" y="38" class="card-title">私下交易确认</text>
      <text x="24" y="66" class="small">双方都需要输入自己的交易密码。</text>
      <line x1="24" y1="84" x2="242" y2="84" stroke="#ffffff" stroke-opacity="0.68"/>
      <text x="24" y="116" class="label">卖方锁定库存</text>
      <text x="158" y="116" font-size="16" fill="#1d2818" font-weight="900">已锁定</text>
      <text x="24" y="146" class="label">买方锁定资金</text>
      <text x="158" y="146" font-size="16" fill="#1d2818" font-weight="900">待确认</text>
      <rect x="24" y="158" width="98" height="28" rx="14" fill="#fffdf1"/>
      <text x="42" y="177" font-size="11" fill="#59624f" font-weight="900">交易密码</text>
      <rect x="148" y="156" width="94" height="34" rx="17" fill="#24351e"/>
      <text x="172" y="178" font-size="13" fill="#fff8df" font-weight="900">确认</text>
    </g>

    <g transform="translate(34 626)">
      <rect width="294" height="58" rx="29" fill="#ffffff" filter="url(#inner)"/>
      <text x="21" y="36" class="nav" opacity="0.58">农场</text>
      <text x="89" y="36" class="nav" opacity="0.58">商店</text>
      <circle cx="147" cy="29" r="32" fill="#24351e" filter="url(#float)"/>
      <text x="137" y="39" font-size="28" fill="#fff8df">+</text>
      <text x="198" y="36" class="nav">交易</text>
      <text x="252" y="36" class="nav" opacity="0.58">私下</text>
    </g>
  </g>

  <g transform="translate(88 892)">
    <rect width="1250" height="42" rx="21" fill="#ffffff" opacity="0.48"/>
    <text x="24" y="27" font-size="14" fill="#506146" font-weight="800">比例调整：主屏内容从大面板改为小型 HUD；地块紧凑排列；玻璃拟态作为悬浮信息卡和确认弹窗，避免影响主界面可读性。</text>
  </g>
</svg>
