<svg xmlns="http://www.w3.org/2000/svg" width="1440" height="960" viewBox="0 0 1440 960">
  <defs>
    <linearGradient id="page" x1="0" y1="0" x2="0" y2="1">
      <stop offset="0" stop-color="#f4f4f2"/>
      <stop offset="1" stop-color="#dededb"/>
    </linearGradient>
    <linearGradient id="glass" x1="0" y1="0" x2="1" y2="1">
      <stop offset="0" stop-color="#ffffff"/>
      <stop offset="0.55" stop-color="#f7faf2"/>
      <stop offset="1" stop-color="#e9eee1"/>
    </linearGradient>
    <linearGradient id="farmGlow" x1="0" y1="0" x2="1" y2="1">
      <stop offset="0" stop-color="#fff5c8"/>
      <stop offset="0.46" stop-color="#d7f0cf"/>
      <stop offset="1" stop-color="#f1d49b"/>
    </linearGradient>
    <filter id="softShadow" x="-30%" y="-30%" width="160%" height="160%">
      <feDropShadow dx="0" dy="28" stdDeviation="30" flood-color="#757575" flood-opacity="0.28"/>
    </filter>
    <filter id="innerGlow" x="-20%" y="-20%" width="140%" height="140%">
      <feDropShadow dx="0" dy="-2" stdDeviation="2" flood-color="#ffffff" flood-opacity="0.9"/>
      <feDropShadow dx="0" dy="16" stdDeviation="18" flood-color="#9a9a9a" flood-opacity="0.18"/>
    </filter>
    <pattern id="dots" width="24" height="24" patternUnits="userSpaceOnUse">
      <circle cx="5" cy="5" r="2.5" fill="#d9d9d9" opacity="0.28"/>
    </pattern>
  </defs>
  <rect width="1440" height="960" fill="url(#page)"/>
  <g transform="translate(162 82)">
    <rect width="1116" height="800" rx="78" fill="url(#glass)" filter="url(#softShadow)"/>
    <rect x="2" y="2" width="1112" height="796" rx="76" fill="none" stroke="#ffffff" stroke-width="4" opacity="0.9"/>
    <circle cx="278" cy="124" r="66" fill="#e5eadf"/>
    <text x="278" y="145" text-anchor="middle" font-size="56">👩‍🌾</text>
    <circle cx="890" cy="120" r="58" fill="#ffffff" filter="url(#innerGlow)"/>
    <text x="890" y="140" text-anchor="middle" font-size="52">🔔</text>
    <circle cx="1008" cy="120" r="58" fill="#ffffff" filter="url(#innerGlow)"/>
    <text x="1008" y="140" text-anchor="middle" font-size="50">🔎</text>

    <text x="214" y="240" font-size="28" font-weight="700" fill="#a3a3a0">Good Morning</text>
    <text x="214" y="302" font-size="56" font-weight="900" fill="#111111">My Farm</text>
    <text x="214" y="362" font-size="78" font-weight="900" fill="#111111">10,000</text>
    <text x="496" y="360" font-size="30" font-weight="800" fill="#8b8b87">coins</text>

    <g transform="translate(204 408)">
      <rect width="708" height="210" rx="46" fill="url(#farmGlow)" filter="url(#innerGlow)"/>
      <rect x="30" y="30" width="102" height="102" rx="26" fill="#ffffff" fill-opacity="0.58"/>
      <text x="81" y="92" text-anchor="middle" font-size="44">🌾</text>
      <rect x="154" y="30" width="102" height="102" rx="26" fill="#ffffff" fill-opacity="0.58"/>
      <text x="205" y="92" text-anchor="middle" font-size="44">🌱</text>
      <rect x="278" y="30" width="102" height="102" rx="26" fill="#ffffff" fill-opacity="0.58"/>
      <text x="329" y="92" text-anchor="middle" font-size="44">🐔</text>
      <rect x="402" y="30" width="102" height="102" rx="26" fill="#ffffff" fill-opacity="0.58"/>
      <text x="453" y="92" text-anchor="middle" font-size="44">🐄</text>
      <rect x="526" y="30" width="102" height="102" rx="26" fill="#ffffff" fill-opacity="0.42"/>
      <text x="577" y="93" text-anchor="middle" font-size="34" fill="#999">+</text>
      <text x="34" y="170" font-size="28" font-weight="900" fill="#222">3 ready</text>
      <text x="520" y="170" font-size="28" font-weight="900" fill="#4e7b35">4 / 16</text>
    </g>

    <g transform="translate(214 652)">
      <rect width="708" height="118" rx="58" fill="#ffffff" filter="url(#innerGlow)"/>
      <g transform="translate(36 18)">
        <text x="0" y="42" font-size="36">🏠</text>
        <text x="-4" y="82" font-size="21" font-weight="900" fill="#111">Farm</text>
      </g>
      <g transform="translate(188 18)" opacity="0.45">
        <text x="0" y="42" font-size="36">🛒</text>
        <text x="-10" y="82" font-size="21" font-weight="900" fill="#777">Shop</text>
      </g>
      <circle cx="354" cy="58" r="74" fill="#ffffff" filter="url(#softShadow)"/>
      <text x="354" y="80" text-anchor="middle" font-size="78" fill="#111">+</text>
      <g transform="translate(494 18)" opacity="0.45">
        <text x="0" y="42" font-size="36">📈</text>
        <text x="-24" y="82" font-size="21" font-weight="900" fill="#777">Market</text>
      </g>
      <g transform="translate(622 18)" opacity="0.45">
        <text x="0" y="42" font-size="36">🤝</text>
        <text x="-22" y="82" font-size="21" font-weight="900" fill="#777">Trade</text>
      </g>
    </g>

    <g transform="translate(754 286)">
      <rect width="292" height="92" rx="42" fill="#ffffff" filter="url(#innerGlow)"/>
      <text x="42" y="58" font-size="34">💰</text>
      <text x="94" y="58" font-size="30" font-weight="900" fill="#111">+220</text>
      <rect x="182" y="23" width="78" height="44" rx="22" fill="#9ff071"/>
      <text x="202" y="53" font-size="22" font-weight="900" fill="#123d12">14%</text>
    </g>
  </g>
</svg>
